<svg xmlns="http://www.w3.org/2000/svg" width="1024" height="1024" version="1.2"><path d="M296.7 988.9 91 774.2l89.3-75-16.8-143.6 111.2-286 72.5-12.9 45.2 27.2 261.4-229 80.2 55.6 77.6-46.6 59.5 32.4-12.9 99.6 33.6 62.1-49.1 88 53 50.4-78.9 129.4 47.8 196.6 68.6 91.9-235.4 181.1-75.1-104.8-142.3-27.1-128.1 71.1z" fill="#ffb02e"/><path d="M377.3 254.3c8.5-11.9 18.5-22.3 32.5-27.4 19.2-8.8 15.9-7.5 31.4-22.9L586.4 58.8c21.1-21.7 28.8-34.1 60.8-37.9 42.7-5.6 66.5 16.6 87.6 48.8 6.1-5.6 11.5-12.2 17.5-17.7C825-14.1 954.2 80.5 871.1 177.9c36 27.3 62 56.8 42.1 107.2-8 20.4-22.8 31.5-37.4 47 37.9 20.8 56.7 73.1 36.5 110.8-14.5 26.9-51.2 57.4-72.2 81.4q2.55 5.85 6 11.4c38.8 63.5 33.9 101.3 36.1 167.7 7.3 7.2 60.5 71.8 63.1 80.1 8.8 29.1-21.5 38.1-42.3 45.1-12.4-18.7-78.8-104.8-81.8-114-2.7-11.7-.5-24.8-.2-36.8 2.7-63.6-14.2-92.9-49.7-145.8L677 391.5c-15.9-24.1-54-105.4-87-57.5-11.3 16.4 4.9 33.5 13 46.3l33.3 52.8c11.8 18.3 36.9 44.9 21.3 67.5-10.3 14.9-30.8 18-44.7 5.9-7-6.2-11.5-15.7-16.5-23.5L533 386.4c-11.3-16.9-62-96.2-73.6-104.1-11.9-8.1-29.2-5.1-37.1 7.1-12.4 19.2 8.4 41.3 18.6 56.4L537.3 488c10.3 17 47 53.6 19.6 76.5-32.1 26.8-50.2-17.2-65.1-36.9-14.2-18.8-24-35.1-35.9-52.6L334.6 296c-19.5-29.5-64.9-.4-42.2 32.7l103.9 152.8c27 39.8 54.1 79.8 82.2 118.8 4.1 5.7 10.9 12 14.2 18 14.4 25.5-12.7 56.5-40.2 45-18.3-8.5-37.2-22.1-54.4-33.3-16.9-10.4-51.6-41.6-69.5-23.9-29.8 29.2 4.5 47.7 24.8 65.2L479 779.7c36.2 31.3 72.7 65.2 123.2 68.4 46.2 2.8 34 9.5 62.4 45.6 16.5 21.3 33.5 42.3 49.2 64.2 16.9 26.4-19.3 58.7-45.5 38.3-7.2-5.5-13.1-14.6-18.3-21.9l-31.5-43.4c-4.5-6-10.9-15.8-16.1-20.7-10.9-2.9-22.2-4-33.1-6.9-12.8-3.5-29.1-12.6-41.8-13.2-20.6-1-60.5 14.1-83.1 20.2-29.6 7.8-31.1 9.4-54.4 29.7-10.2 8.9-67.8 65.5-75.5 65-8.6-.7-33.9-30.3-40.5-37.8 22.9-18.6 51.1-50.9 73-72.7 4.6-4.6 17.1-21.8 21.3-23.7 16.6-7.6 73.3-24.9 91.9-28.7-51.8-40-103.1-88.6-153.8-130.7-9.8-8.1-26.7-21-33.2-31.8-40.9-67.8 7.6-151.2 94.6-133.8-37.3-49.1-66.7-104.9-102.5-154.3-7.1 11.8-11 22.3-16.3 34.9l-39.5 91.4c-31.6 74.4-11.6 100.1-.2 175.2-7 7.6-15.6 15.7-22.9 23.1L140 763c-10.4 10.4-19.8 21.2-29.9 31.2-32.2-22.3-45.7-44.6-14.3-73.5 17.5-16 34.7-33.1 50.8-50.6-20.2-92.1-18.8-116.9 18.4-201.7 17-38.7 32.8-77.4 51.2-115.4 4.1-8.7 9.3-17.8 12.1-27 1.3-4.7-1.1-15.8.1-21.2 5.6-73.4 99.8-107.9 148.9-50.5M652.1 81.5c-18.8 7.8-69.9 65.5-86 81.7L516.9 212c-6.6 6.4-17 15.7-22.8 22.1 18.2 16.1 22.2 18.3 33.6 40.6 3.8-1 29.8-29 35-34.3l66.4-66.6c15.4-15.8 38.1-35.5 51.6-53.8 11-15.1-4.5-41.5-28.6-38.5m157.1 9.2c-20.8 3-43.5 33.1-58.6 48.4l-66.9 67.6c-18.6 18.8-37.3 38.7-57.3 56.2 14.6 2.1 26.9 6.2 39 15 4.4 3.4 7.4 6.1 11.5 9.9 46.1-45.6 92-95.5 138.8-139.6 8.7-8.1 21.9-19.7 21.7-32.1-.3-14.7-14-25.8-28.2-25.4m17 135.7c-8.8 2.7-97.9 95.9-110.5 109.3 3.5 8.2 21 36 26.8 42.8l1 .2c1.2-1 1.9-1.5 3-2.6l75.2-75c14.2-14.3 54.8-43.8 29.3-65.1-7.2-6.6-15.5-8.6-24.8-9.6m6.8 155.9c-17.4 3.9-40.6 35.4-53.8 48.8 3.7 7.3 20.9 34.7 25.9 40.6 1.2-.2.7 0 1.5-.7l26.1-26.1c7-6.9 28.4-26.6 28.1-36.7-.5-15-11.9-26.5-27.8-25.9" style="fill:#2a1c05"/></svg>
