<svg id="svg" version="1.1" xmlns="http://www.w3.org/2000/svg" xmlns:xlink="http://www.w3.org/1999/xlink" width="400" height="400" viewBox="0, 0, 400,400"><g id="svgg"><path id="path0" d="M0.000 200.000 L 0.000 400.000 200.000 400.000 L 400.000 400.000 400.000 200.000 L 400.000 0.000 200.000 0.000 L 0.000 0.000 0.000 200.000 M148.617 125.019 C 150.721 125.282,150.759 125.311,151.758 127.420 C 152.816 129.656,156.570 133.093,168.776 143.000 C 171.486 145.200,174.545 147.720,175.573 148.600 C 176.601 149.480,179.323 151.748,181.621 153.641 C 185.665 156.971,190.740 161.194,192.804 162.947 C 201.464 170.305,200.930 170.490,221.400 153.011 C 226.482 148.671,233.645 142.757,240.957 136.863 C 245.811 132.950,250.448 128.419,251.392 126.667 L 252.158 125.244 273.779 125.122 C 285.671 125.055,296.030 125.093,296.800 125.206 L 298.200 125.411 298.422 129.606 C 298.544 131.913,298.679 133.575,298.722 133.300 C 298.891 132.218,299.909 132.989,302.400 136.085 C 303.830 137.863,305.360 139.704,305.800 140.176 C 306.819 141.268,308.400 143.488,308.400 143.826 C 308.400 143.968,308.950 144.899,309.622 145.895 C 311.305 148.389,313.905 153.636,314.370 155.477 C 314.582 156.315,314.913 157.630,315.106 158.400 C 316.935 165.694,313.148 178.420,308.732 179.822 C 308.329 179.949,308.000 180.227,308.000 180.438 C 308.000 180.650,306.974 181.763,305.721 182.911 C 304.467 184.060,302.943 185.495,302.334 186.100 C 301.725 186.705,301.114 187.200,300.977 187.200 C 300.839 187.200,299.798 188.084,298.663 189.165 C 297.529 190.246,294.622 192.991,292.205 195.265 C 287.772 199.435,286.391 200.797,283.316 204.029 C 282.390 205.003,281.400 205.998,281.116 206.240 C 280.509 206.758,278.856 208.618,276.529 211.401 C 275.610 212.501,273.771 214.544,272.443 215.942 C 271.114 217.340,269.921 218.820,269.790 219.231 C 269.587 219.871,269.430 219.908,268.687 219.489 C 266.996 218.535,261.709 214.537,258.250 211.597 C 255.660 209.396,254.802 208.850,256.580 210.535 C 257.471 211.380,260.540 213.983,263.400 216.321 C 266.260 218.658,268.690 220.671,268.800 220.794 C 269.107 221.137,275.840 226.663,279.773 229.800 C 281.705 231.340,284.993 234.000,287.081 235.712 C 289.170 237.423,292.311 239.915,294.063 241.248 C 298.068 244.296,297.985 244.036,298.077 253.926 L 298.154 262.200 298.411 255.400 C 298.553 251.660,298.701 248.510,298.741 248.400 C 298.780 248.290,299.365 248.830,300.040 249.600 C 300.715 250.370,301.747 251.540,302.334 252.200 C 305.818 256.118,307.314 258.164,308.912 261.200 C 313.727 270.349,314.438 271.819,315.064 273.929 C 317.951 283.659,314.302 298.187,308.870 298.587 C 308.494 298.615,308.008 298.748,307.792 298.882 C 307.184 299.257,299.274 299.627,287.600 299.827 C 277.849 299.993,272.484 300.209,269.400 300.558 C 268.740 300.633,267.166 300.821,265.902 300.976 C 263.880 301.223,263.447 301.146,262.302 300.331 C 261.045 299.436,248.806 289.308,248.400 288.826 C 248.290 288.696,247.210 287.790,246.000 286.813 C 242.309 283.833,237.160 279.543,233.986 276.802 C 232.328 275.371,229.995 273.390,228.800 272.400 C 226.572 270.553,223.556 267.963,223.200 267.591 C 223.090 267.476,220.840 265.593,218.200 263.406 C 215.560 261.219,213.310 259.333,213.200 259.215 C 212.728 258.708,209.730 256.493,208.965 256.086 C 207.215 255.155,200.989 256.644,199.430 258.367 C 199.015 258.825,198.479 259.205,198.238 259.211 C 197.699 259.224,193.601 262.967,193.596 263.451 C 193.594 263.643,193.022 264.250,192.325 264.800 C 191.628 265.350,187.743 269.130,183.692 273.200 C 179.640 277.270,176.039 280.870,175.688 281.200 C 175.338 281.530,174.680 282.218,174.225 282.728 C 173.771 283.239,172.606 284.409,171.636 285.328 C 170.666 286.248,168.264 288.547,166.298 290.438 C 159.444 297.033,158.815 297.210,141.671 297.356 C 125.032 297.499,127.956 298.989,112.335 282.400 C 101.691 271.096,102.230 272.519,102.264 255.820 L 102.288 243.839 103.644 242.680 C 104.390 242.043,106.440 240.370,108.200 238.962 C 109.960 237.553,113.020 235.066,115.000 233.435 C 116.980 231.803,121.030 228.526,124.000 226.151 C 126.970 223.777,131.920 219.744,135.000 217.189 C 142.784 210.733,157.843 198.780,159.947 197.387 C 160.908 196.752,161.502 196.167,161.267 196.089 C 161.031 196.010,159.353 196.958,157.536 198.195 C 154.437 200.306,154.215 200.394,153.930 199.622 C 153.763 199.170,153.423 198.800,153.175 198.800 C 152.927 198.800,152.156 198.395,151.462 197.900 C 150.768 197.405,149.760 196.963,149.223 196.918 C 148.685 196.873,147.785 196.498,147.223 196.084 C 146.660 195.671,144.924 194.946,143.365 194.475 C 136.631 192.437,134.646 190.515,119.734 171.600 C 111.248 160.836,103.094 148.773,103.817 148.050 C 103.921 147.946,104.769 148.434,105.703 149.135 C 106.636 149.836,107.928 150.699,108.573 151.053 C 109.218 151.407,110.298 152.214,110.973 152.846 C 111.648 153.479,112.359 153.997,112.553 153.998 C 112.747 153.999,113.197 154.324,113.553 154.719 C 113.909 155.114,114.830 155.875,115.600 156.408 C 116.370 156.942,117.302 157.653,117.671 157.989 C 118.040 158.325,118.940 158.941,119.671 159.357 C 121.601 160.456,120.375 159.341,116.000 156.017 C 114.130 154.596,110.836 152.095,108.680 150.459 C 106.524 148.823,104.255 147.012,103.636 146.434 L 102.512 145.384 102.319 135.995 C 102.213 130.831,102.208 126.292,102.308 125.908 C 102.477 125.263,103.562 125.202,116.545 125.105 C 124.275 125.047,134.174 124.944,138.543 124.877 C 142.912 124.809,147.445 124.873,148.617 125.019 M297.978 145.794 C 297.836 146.746,296.774 147.844,292.750 151.194 C 287.951 155.190,285.523 157.233,281.805 160.400 C 279.648 162.238,277.638 163.899,271.600 168.833 C 268.850 171.080,265.700 173.688,264.600 174.628 C 261.005 177.700,254.713 182.978,253.443 183.988 C 252.759 184.531,251.025 185.971,249.589 187.188 C 248.153 188.405,246.263 189.940,245.389 190.599 C 238.925 195.480,238.986 195.894,247.205 202.771 C 248.632 203.965,250.205 205.301,250.700 205.741 C 251.195 206.180,251.600 206.350,251.600 206.119 C 251.600 205.887,250.565 204.851,249.300 203.816 C 245.284 200.530,241.600 196.741,241.600 195.898 C 241.600 195.160,244.728 191.600,245.376 191.600 C 245.531 191.600,245.893 191.375,246.182 191.100 C 246.719 190.588,247.854 189.661,252.393 186.031 C 253.818 184.890,255.708 183.290,256.593 182.476 C 257.477 181.661,259.189 180.186,260.399 179.198 C 261.608 178.209,262.975 177.040,263.437 176.600 C 264.739 175.360,266.470 173.905,268.071 172.706 C 268.874 172.104,269.771 171.377,270.065 171.089 C 270.359 170.802,273.750 167.939,277.600 164.729 C 281.450 161.518,285.300 158.285,286.156 157.545 C 290.276 153.984,291.153 153.241,293.199 151.583 C 297.544 148.060,298.476 146.996,298.309 145.747 L 298.157 144.600 297.978 145.794 M121.200 160.386 C 121.200 160.598,121.605 160.984,122.100 161.244 C 122.995 161.714,122.996 161.712,122.238 160.858 C 121.391 159.905,121.200 159.818,121.200 160.386 M124.175 162.732 C 124.821 163.429,125.507 164.000,125.698 164.000 C 126.265 164.000,125.667 163.300,124.288 162.350 L 123.000 161.464 124.175 162.732 M127.019 164.905 C 127.237 165.472,128.788 166.546,129.034 166.299 C 129.120 166.213,128.657 165.749,128.006 165.268 C 127.355 164.786,126.911 164.623,127.019 164.905 M130.400 167.532 C 130.400 168.051,131.496 168.904,131.950 168.738 C 132.157 168.662,131.893 168.277,131.363 167.881 C 130.833 167.486,130.400 167.329,130.400 167.532 M133.617 169.873 C 133.634 170.206,136.445 172.485,139.374 174.541 C 140.944 175.643,140.136 174.763,138.142 173.200 C 137.721 172.870,136.527 171.913,135.488 171.073 C 134.450 170.233,133.608 169.693,133.617 169.873 M142.596 177.161 C 143.033 177.663,143.730 178.255,144.144 178.477 C 145.317 179.105,144.589 178.185,143.088 177.143 L 141.800 176.249 142.596 177.161 M146.000 179.810 C 146.000 180.256,147.199 181.267,147.567 181.132 C 147.764 181.059,147.493 180.677,146.963 180.281 C 146.433 179.886,146.000 179.674,146.000 179.810 M149.200 182.236 C 149.200 182.535,150.183 183.371,151.300 184.021 C 152.466 184.699,152.087 184.161,150.600 183.027 C 149.830 182.440,149.200 182.084,149.200 182.236 M153.200 185.648 C 153.750 186.099,154.693 186.903,155.297 187.434 C 155.900 187.966,156.541 188.400,156.722 188.400 C 156.902 188.400,157.568 188.940,158.200 189.600 C 158.832 190.260,159.613 190.800,159.936 190.800 C 160.258 190.800,158.979 189.636,157.093 188.214 C 155.207 186.791,153.549 185.441,153.408 185.214 C 153.268 184.986,152.938 184.806,152.676 184.813 C 152.414 184.821,152.650 185.196,153.200 185.648 M252.971 207.497 C 253.615 208.209,254.230 208.704,254.338 208.596 C 254.445 208.488,254.458 208.355,254.367 208.300 C 254.275 208.245,253.660 207.751,253.000 207.201 L 251.800 206.203 252.971 207.497 " stroke="none" fill="#7dc4fd" fill-rule="evenodd"></path><path id="path1" d="M116.545 125.105 C 103.562 125.202,102.477 125.263,102.308 125.908 C 102.208 126.292,102.213 130.831,102.319 135.995 L 102.512 145.384 103.636 146.434 C 104.255 147.012,106.524 148.823,108.680 150.459 C 110.836 152.095,114.130 154.595,116.000 156.014 C 117.870 157.434,119.490 158.687,119.600 158.800 C 119.710 158.913,121.240 160.096,123.000 161.430 C 127.059 164.505,137.335 172.497,137.600 172.784 C 137.710 172.903,138.610 173.628,139.600 174.394 C 141.989 176.245,142.672 176.794,144.213 178.103 C 145.396 179.107,147.068 180.414,157.000 188.098 C 158.760 189.459,160.560 190.908,161.000 191.317 C 161.440 191.727,163.947 193.713,166.571 195.731 C 169.195 197.749,173.065 200.759,175.171 202.419 C 180.647 206.736,193.243 216.313,195.945 218.214 C 197.962 219.633,203.339 223.650,211.988 230.200 C 214.583 232.165,218.407 235.200,218.800 235.607 C 218.910 235.721,220.530 237.060,222.400 238.584 C 230.588 245.255,238.913 252.913,241.766 256.400 C 243.385 258.379,247.654 263.181,248.570 264.056 C 249.778 265.208,250.463 265.235,274.941 265.114 L 298.081 265.000 298.022 255.276 C 297.951 243.793,298.101 244.322,294.063 241.248 C 292.311 239.915,289.170 237.423,287.081 235.712 C 284.993 234.000,281.705 231.340,279.773 229.800 C 275.840 226.663,269.107 221.137,268.800 220.794 C 268.690 220.671,266.260 218.660,263.400 216.326 C 260.540 213.991,257.840 211.747,257.400 211.339 C 256.960 210.931,253.900 208.351,250.600 205.606 C 238.494 195.537,238.567 195.750,245.389 190.599 C 246.263 189.940,248.153 188.405,249.589 187.188 C 251.025 185.971,252.759 184.531,253.443 183.988 C 254.713 182.978,261.005 177.700,264.600 174.628 C 265.700 173.688,268.850 171.080,271.600 168.833 C 277.638 163.899,279.648 162.238,281.805 160.400 C 285.415 157.325,287.919 155.217,292.734 151.200 C 298.811 146.130,298.453 147.194,298.307 134.642 L 298.200 125.413 296.800 125.207 C 296.030 125.093,285.671 125.055,273.779 125.122 L 252.158 125.244 251.392 126.667 C 250.448 128.419,245.811 132.950,240.957 136.863 C 233.645 142.757,226.482 148.671,221.400 153.011 C 200.930 170.490,201.464 170.305,192.804 162.947 C 190.740 161.194,185.665 156.971,181.621 153.641 C 179.323 151.748,176.601 149.480,175.573 148.600 C 174.545 147.720,171.486 145.200,168.776 143.000 C 156.570 133.093,152.816 129.656,151.758 127.420 C 150.504 124.772,150.115 124.697,138.543 124.877 C 134.174 124.944,124.275 125.047,116.545 125.105 M159.799 197.473 C 157.719 198.880,142.175 211.238,135.000 217.189 C 131.920 219.744,126.970 223.777,124.000 226.151 C 121.030 228.526,116.980 231.803,115.000 233.435 C 113.020 235.066,109.960 237.553,108.200 238.962 C 106.440 240.370,104.405 242.034,103.677 242.661 L 102.353 243.800 102.277 254.400 L 102.200 265.000 126.000 265.114 C 155.046 265.254,151.611 265.817,155.786 260.230 C 158.063 257.184,161.380 253.570,165.888 249.224 C 174.232 241.179,174.800 240.385,174.800 236.775 C 174.800 231.342,173.171 225.493,168.401 213.800 C 168.221 213.360,167.127 210.570,165.970 207.600 C 164.812 204.630,163.382 201.120,162.792 199.800 C 162.201 198.480,161.646 197.173,161.558 196.896 C 161.446 196.545,160.913 196.720,159.799 197.473 " stroke="none" fill="#fbfdff" fill-rule="evenodd"></path><path id="path2" d="M298.550 137.800 C 298.551 140.220,298.616 141.158,298.696 139.885 C 298.776 138.612,298.775 136.632,298.694 135.485 C 298.614 134.338,298.549 135.380,298.550 137.800 M161.920 192.880 C 162.566 193.526,162.526 194.597,161.834 195.172 C 161.194 195.703,161.392 196.710,162.706 199.600 C 163.157 200.590,164.548 204.010,165.799 207.200 C 167.049 210.390,168.220 213.360,168.400 213.800 C 173.132 225.363,174.800 231.349,174.800 236.775 C 174.800 240.385,174.232 241.179,165.888 249.224 C 161.401 253.549,158.060 257.187,155.813 260.194 C 153.763 262.937,152.089 264.790,151.525 264.941 C 151.016 265.078,139.730 265.192,126.444 265.195 L 102.289 265.200 102.506 267.500 C 102.626 268.765,102.916 270.295,103.152 270.900 L 103.580 272.000 127.590 272.000 C 153.450 272.000,153.200 272.020,153.200 269.974 C 153.200 269.134,156.913 262.151,158.676 259.676 C 163.323 253.153,174.987 242.493,186.872 233.908 C 188.782 232.529,192.068 230.089,194.175 228.486 C 196.282 226.884,198.270 225.471,198.594 225.347 C 200.383 224.661,218.543 237.213,229.600 246.778 C 237.795 253.866,244.111 261.777,247.586 269.300 L 248.833 272.000 270.758 272.000 C 297.439 272.000,297.472 271.998,297.960 270.043 C 298.488 267.925,298.843 263.179,298.390 264.300 L 298.026 265.200 274.439 265.200 C 251.367 265.200,249.549 265.109,248.362 263.890 C 247.405 262.908,242.973 257.875,241.766 256.400 C 238.913 252.913,230.588 245.255,222.400 238.584 C 220.530 237.060,218.910 235.721,218.800 235.607 C 218.407 235.200,214.583 232.165,211.988 230.200 C 203.330 223.643,197.962 219.633,195.944 218.214 C 193.263 216.329,182.762 208.350,175.600 202.755 C 165.318 194.725,162.229 192.400,161.840 192.400 C 161.618 192.400,161.654 192.614,161.920 192.880 " stroke="none" fill="#b3abc6" fill-rule="evenodd"></path><path id="path3" d="M298.740 139.758 C 298.579 147.745,298.924 146.932,294.000 150.945 C 292.350 152.289,288.570 155.463,285.600 157.999 C 282.630 160.534,278.040 164.400,275.400 166.590 C 272.760 168.780,270.359 170.806,270.065 171.092 C 269.771 171.378,268.874 172.104,268.071 172.706 C 266.470 173.905,264.739 175.360,263.437 176.600 C 262.975 177.040,261.608 178.209,260.399 179.198 C 259.189 180.186,257.477 181.661,256.593 182.476 C 255.708 183.290,253.818 184.890,252.393 186.031 C 247.854 189.661,246.719 190.588,246.182 191.100 C 245.893 191.375,245.531 191.600,245.376 191.600 C 244.728 191.600,241.600 195.160,241.600 195.898 C 241.600 196.842,245.149 200.360,251.400 205.612 C 253.820 207.645,256.700 210.079,257.800 211.022 C 266.008 218.056,269.424 220.385,269.799 219.204 C 269.924 218.808,271.114 217.340,272.443 215.942 C 273.771 214.544,275.610 212.501,276.529 211.401 C 278.856 208.618,280.509 206.758,281.116 206.240 C 281.400 205.998,282.390 205.003,283.316 204.029 C 286.391 200.797,287.772 199.435,292.205 195.265 C 294.622 192.991,297.529 190.246,298.663 189.165 C 299.798 188.084,300.839 187.200,300.977 187.200 C 301.114 187.200,301.725 186.705,302.334 186.100 C 302.943 185.495,304.467 184.060,305.721 182.911 C 306.974 181.763,308.000 180.650,308.000 180.438 C 308.000 180.227,308.329 179.949,308.732 179.822 C 313.148 178.420,316.935 165.694,315.106 158.400 C 314.913 157.630,314.582 156.315,314.370 155.477 C 313.905 153.636,311.305 148.389,309.622 145.895 C 308.950 144.899,308.400 143.968,308.400 143.826 C 308.400 143.488,306.819 141.268,305.800 140.176 C 305.360 139.704,303.830 137.863,302.400 136.085 C 298.836 131.654,298.904 131.586,298.740 139.758 M103.885 148.700 C 104.935 151.525,112.324 162.202,119.734 171.600 C 134.646 190.515,136.631 192.437,143.365 194.475 C 144.924 194.946,146.660 195.671,147.223 196.084 C 147.785 196.498,148.685 196.873,149.223 196.918 C 149.760 196.963,150.768 197.405,151.462 197.900 C 152.156 198.395,152.927 198.800,153.175 198.800 C 153.423 198.800,153.763 199.171,153.931 199.624 C 154.245 200.473,155.954 199.542,161.100 195.724 C 163.315 194.080,162.868 193.308,157.194 188.985 C 153.509 186.178,148.159 181.934,143.597 178.200 C 141.446 176.440,137.938 173.650,135.800 172.000 C 133.663 170.350,130.538 167.913,128.857 166.585 C 127.176 165.257,124.720 163.357,123.400 162.362 C 117.803 158.146,114.171 155.374,113.753 155.000 C 113.507 154.780,112.247 153.824,110.953 152.876 C 103.629 147.510,103.390 147.369,103.885 148.700 M194.437 228.300 C 192.182 230.005,188.776 232.529,186.868 233.908 C 174.950 242.527,163.321 253.157,158.676 259.676 C 156.913 262.151,153.200 269.134,153.200 269.974 C 153.200 272.020,153.449 272.000,127.600 272.000 C 114.400 272.000,103.600 272.138,103.600 272.307 C 103.600 273.092,112.747 283.102,121.998 292.442 C 127.248 297.743,126.231 297.488,141.671 297.356 C 158.815 297.210,159.444 297.033,166.298 290.438 C 168.264 288.547,170.666 286.248,171.636 285.328 C 172.606 284.409,173.771 283.239,174.225 282.728 C 174.680 282.218,175.338 281.530,175.688 281.200 C 176.039 280.870,179.640 277.270,183.692 273.200 C 187.743 269.130,191.628 265.350,192.325 264.800 C 193.022 264.250,193.594 263.643,193.596 263.451 C 193.601 262.967,197.699 259.224,198.238 259.211 C 198.479 259.205,199.015 258.825,199.430 258.367 C 200.989 256.644,207.215 255.155,208.965 256.086 C 209.730 256.493,212.728 258.708,213.200 259.215 C 213.310 259.333,215.560 261.219,218.200 263.406 C 220.840 265.593,223.090 267.476,223.200 267.591 C 223.556 267.963,226.572 270.553,228.800 272.400 C 229.995 273.390,232.328 275.371,233.986 276.802 C 237.160 279.543,242.309 283.833,246.000 286.813 C 247.210 287.790,248.290 288.696,248.400 288.826 C 248.806 289.308,261.045 299.436,262.302 300.331 C 263.447 301.146,263.880 301.223,265.902 300.976 C 267.166 300.821,268.740 300.633,269.400 300.558 C 272.484 300.209,277.849 299.993,287.600 299.827 C 299.274 299.627,307.184 299.257,307.792 298.882 C 308.008 298.748,308.494 298.615,308.870 298.587 C 316.229 298.045,318.472 279.468,312.546 268.129 C 306.912 257.350,306.908 257.343,302.334 252.200 C 301.747 251.540,300.737 250.389,300.089 249.643 L 298.910 248.286 298.644 249.707 C 298.497 250.489,298.404 254.970,298.436 259.664 C 298.472 264.906,298.322 268.834,298.047 269.843 L 297.600 271.486 295.141 271.743 C 293.789 271.884,282.816 272.000,270.758 272.000 L 248.833 272.000 247.586 269.300 C 243.351 260.131,235.771 251.422,223.800 241.972 C 213.843 234.113,200.627 225.200,198.930 225.200 C 198.714 225.200,196.692 226.595,194.437 228.300 " stroke="none" fill="#2a6ece" fill-rule="evenodd"></path></g></svg>