<?xml version="1.0" standalone="no"?>
<!DOCTYPE svg PUBLIC "-//W3C//DTD SVG 20010904//EN"
 "http://www.w3.org/TR/2001/REC-SVG-20010904/DTD/svg10.dtd">
<svg version="1.0" xmlns="http://www.w3.org/2000/svg"
 width="405.000000pt" height="405.000000pt" viewBox="0 0 405.000000 405.000000"
 preserveAspectRatio="xMidYMid meet">

<g transform="translate(0.000000,405.000000) scale(0.100000,-0.100000)"
fill="#000000" stroke="none">
<path d="M1870 3404 c-14 -2 -65 -11 -113 -20 -414 -72 -811 -373 -1007 -764
-124 -247 -175 -506 -148 -748 6 -59 12 -126 12 -149 0 -26 4 -37 9 -30 5 7 7
1 4 -16 -2 -15 -2 -25 1 -22 3 2 20 -41 38 -97 25 -78 30 -104 21 -111 -8 -6
-7 -7 4 -4 21 7 54 -62 46 -93 -4 -18 -3 -19 9 -9 12 10 13 9 8 -6 -5 -12 -4
-16 3 -12 11 7 28 -22 18 -31 -3 -3 -5 1 -5 8 0 7 -2 11 -5 8 -4 -3 -3 -18 1
-32 6 -25 7 -25 20 -9 11 14 14 14 12 3 -2 -8 4 -30 11 -48 10 -24 16 -30 22
-20 7 11 11 10 19 -2 5 -8 7 -22 5 -31 -3 -9 1 -22 10 -29 8 -7 15 -20 15 -29
0 -10 9 -17 20 -18 25 -2 25 5 3 24 -14 11 -14 13 -2 6 17 -8 75 -73 65 -73
-3 0 -14 10 -26 22 -15 17 -20 18 -20 6 0 -9 7 -21 15 -28 8 -7 15 -20 15 -29
0 -9 3 -12 8 -6 9 13 35 19 28 6 -3 -5 -8 -29 -11 -52 -4 -33 -3 -40 6 -29 8
11 12 12 16 3 2 -7 9 -13 15 -13 6 0 3 11 -6 25 -9 14 -12 25 -7 25 5 0 13 -5
16 -10 4 -6 10 -8 15 -5 10 6 20 -19 20 -51 0 -15 4 -23 10 -19 6 4 16 3 23
-2 18 -14 42 -9 39 7 -2 8 0 12 4 7 10 -10 13 -47 3 -41 -4 2 -11 -1 -14 -7
-5 -7 1 -9 16 -7 13 2 23 9 21 16 -2 14 14 16 22 3 4 -5 0 -11 -6 -14 -10 -3
-10 -9 -2 -23 11 -18 32 -25 83 -26 18 0 20 -2 10 -8 -10 -7 -5 -13 21 -25 19
-9 25 -14 13 -12 -13 3 -24 -1 -27 -10 -3 -8 -2 -11 3 -8 5 3 13 0 16 -6 4 -5
13 -8 21 -5 10 4 14 -3 14 -21 0 -26 1 -26 15 -7 13 17 14 17 15 2 0 -11 8
-18 21 -18 11 0 18 -4 15 -9 -8 -12 50 -35 69 -28 8 4 17 1 21 -5 4 -6 27 -9
58 -5 28 2 43 2 34 0 -10 -2 -18 -11 -18 -20 0 -11 6 -14 25 -9 19 5 25 2 25
-10 0 -12 9 -15 43 -13 28 2 52 -4 72 -17 27 -18 46 -20 180 -24 32 -1 36 -3
20 -10 -13 -6 21 -8 89 -7 77 1 111 6 114 15 2 6 11 12 19 12 13 0 13 -2 2
-17 -13 -15 -12 -15 9 -4 18 10 26 10 38 0 11 -9 18 -9 26 -1 7 7 34 12 60 12
26 0 48 5 48 10 0 6 22 10 49 10 30 0 55 6 64 15 8 8 17 11 20 8 4 -3 5 4 2
16 -4 24 10 29 19 6 6 -17 27 -21 24 -5 -2 6 12 17 30 25 17 8 32 10 32 5 0
-6 -5 -10 -12 -10 -6 0 -8 -3 -5 -7 4 -3 26 2 49 12 56 25 106 73 61 59 -16
-5 -16 -4 0 6 14 9 22 9 34 -2 9 -7 14 -8 10 -2 -9 15 10 30 49 38 18 4 40 16
50 28 19 20 19 21 -3 14 -13 -4 -24 -2 -29 5 -4 7 -3 9 3 6 6 -4 28 1 49 10
22 9 43 16 48 14 5 -1 6 5 3 14 -4 8 -2 15 2 15 5 0 11 -6 14 -12 2 -7 8 -10
12 -6 4 4 2 14 -5 23 -10 12 -9 16 5 21 9 4 21 2 28 -5 16 -16 37 -14 37 5 0
8 -4 13 -8 10 -4 -2 -14 -1 -22 5 -12 7 -11 9 5 9 20 1 20 1 1 15 -11 8 -15
15 -8 15 6 0 17 -9 25 -21 13 -18 18 -19 36 -7 22 14 27 33 11 43 -5 3 -10 12
-9 18 0 9 2 9 6 0 8 -20 26 -15 18 5 -5 13 -3 14 6 5 14 -14 37 -7 67 23 21
20 21 23 7 38 -9 9 -13 16 -8 16 5 0 15 -6 22 -12 10 -11 10 -8 2 15 -15 38
-14 45 2 22 16 -21 40 -11 33 13 -6 19 20 59 30 49 4 -4 1 -13 -6 -22 -7 -8
-9 -15 -4 -15 21 1 31 18 30 51 -1 25 3 35 12 32 6 -3 12 0 12 6 0 6 7 8 15 5
17 -7 21 11 5 21 -6 4 -8 11 -4 16 3 5 10 7 15 4 5 -4 9 -1 9 4 0 6 -4 11 -8
11 -5 0 -9 7 -9 15 0 13 4 12 21 -2 19 -17 20 -17 7 -1 -11 15 -11 19 3 24 9
3 16 16 16 28 1 25 24 59 34 49 4 -4 4 0 0 10 -3 9 -1 23 5 31 6 7 7 17 3 22
-4 4 2 2 12 -6 18 -14 19 -14 8 7 -15 27 -15 36 -2 28 6 -4 10 6 10 22 0 23
-2 25 -11 13 -9 -12 -10 -12 -5 3 3 10 6 21 6 23 0 2 6 4 14 4 18 0 29 25 32
73 1 21 7 44 13 51 7 9 9 30 5 55 -4 25 -3 41 3 41 6 0 10 12 11 28 0 15 4 97
7 182 6 135 4 171 -15 280 -12 69 -23 133 -23 142 -1 9 -3 15 -6 13 -2 -3 -17
35 -33 82 -35 104 -97 229 -150 301 -21 29 -36 57 -32 64 4 6 3 8 -3 5 -14 -9
-66 60 -57 75 4 6 3 8 -3 5 -6 -4 -35 21 -64 54 -30 33 -89 87 -131 121 -43
33 -75 65 -71 71 3 6 1 7 -5 3 -7 -4 -52 18 -102 48 -49 31 -92 56 -94 56 -3
0 -38 15 -78 34 -154 71 -319 106 -523 111 -82 2 -161 2 -175 -1z m389 -113
c470 -92 869 -443 1021 -899 41 -125 60 -248 60 -397 0 -150 -19 -272 -61
-399 -29 -88 -115 -266 -128 -266 -3 0 -25 34 -49 75 l-42 75 25 49 c86 170
123 412 94 618 -12 88 -59 244 -95 315 l-24 47 35 58 c36 60 43 99 23 136 -21
40 -40 46 -132 47 l-88 0 -88 83 c-393 371 -985 422 -1434 123 -420 -279 -614
-787 -486 -1268 24 -92 25 -88 -4 -88 -50 0 -73 -52 -37 -84 17 -15 39 -17
179 -14 154 3 162 4 186 27 l26 24 0 554 0 553 110 0 110 0 0 -578 0 -578 -26
-52 c-29 -59 -79 -106 -143 -136 -40 -18 -70 -21 -216 -24 l-170 -4 -32 54
c-225 373 -241 835 -43 1228 207 412 594 684 1050 740 99 12 261 4 379 -19z
m-44 -257 c105 -20 200 -54 294 -105 104 -56 203 -128 195 -141 -4 -6 -3 -9 2
-5 5 3 18 -1 28 -9 18 -13 18 -14 -5 -23 -13 -5 -32 -18 -43 -29 -17 -20 -84
-137 -150 -263 l-29 -55 -58 86 c-101 151 -192 224 -328 264 -70 20 -246 21
-321 1 -73 -19 -168 -67 -207 -105 l-33 -31 0 45 c0 34 -6 50 -22 66 -19 18
-35 20 -140 20 -65 0 -118 3 -118 6 0 18 162 134 250 179 218 110 451 144 685
99z m-140 -369 c33 -9 80 -29 104 -46 24 -16 44 -29 45 -27 1 2 14 18 29 36
21 26 27 29 27 15 0 -10 1 -82 3 -161 l2 -142 -65 0 c-62 0 -67 2 -83 29 -59
100 -187 134 -294 78 -59 -31 -92 -115 -73 -186 21 -78 62 -111 217 -171 122
-46 210 -99 259 -153 24 -27 47 -46 51 -44 4 3 21 30 37 60 l29 54 -71 114
-71 114 63 5 c88 7 96 16 96 109 l0 76 60 -90 c33 -49 65 -90 71 -90 6 0 64
93 128 207 l116 208 138 0 c75 0 137 -2 137 -5 0 -3 -84 -151 -186 -330 -108
-189 -184 -332 -180 -340 5 -14 331 -584 378 -662 l20 -33 -139 0 -138 1 -135
231 c-74 127 -140 237 -146 246 -9 12 -23 -8 -74 -104 -94 -178 -142 -246
-203 -288 -172 -119 -413 -111 -562 18 -42 35 -99 123 -109 167 -6 26 -5 26
91 38 53 7 102 15 108 17 7 3 22 -11 33 -30 57 -96 217 -113 298 -32 83 83 58
208 -55 284 -25 17 -104 54 -175 83 -149 61 -215 108 -263 189 l-33 54 0 141
c0 137 1 141 30 191 83 146 291 218 485 169z m-928 -567 l-2 -493 -64 0 -64 0
-14 40 c-72 202 -69 503 7 694 45 115 119 251 135 251 3 0 3 -222 2 -492z
m913 198 c0 -12 -5 -7 -19 24 -11 24 -11 24 3 6 9 -11 16 -24 16 -30z m1021
-156 c16 -110 6 -292 -21 -393 -23 -89 -49 -157 -59 -157 -3 0 -33 49 -66 108
-33 59 -78 138 -99 176 -22 38 -33 66 -26 61 8 -5 11 -3 8 6 -3 8 -11 13 -17
11 -7 -1 -9 2 -6 8 4 6 13 9 21 6 10 -4 18 4 25 22 6 15 20 37 31 49 12 13 18
29 14 38 -3 9 -2 13 4 10 6 -3 14 5 20 19 5 14 14 26 20 26 5 0 10 9 10 19 0
11 5 21 11 23 6 2 12 16 12 31 0 14 4 25 9 24 6 -1 15 7 21 18 7 11 15 22 19
25 4 3 6 12 6 20 -6 93 45 -26 63 -150z m-1051 144 c0 -8 10 -14 23 -14 12 0
29 -11 38 -23 8 -12 30 -43 49 -69 18 -27 31 -50 28 -53 -3 -3 -36 8 -74 24
-38 16 -95 39 -126 51 -32 12 -63 29 -70 38 -11 13 -11 14 0 8 10 -6 13 -2 10
14 -2 14 3 25 12 27 13 4 13 3 0 -7 -12 -10 -10 -10 10 -5 14 4 33 7 42 7 9
-1 22 6 28 14 14 16 30 10 30 -12z m-140 10 c0 -8 -19 -13 -24 -6 -3 5 1 9 9
9 8 0 15 -2 15 -3z m-311 -383 c1 9 8 19 15 22 9 4 13 1 10 -7 -8 -21 147
-156 181 -156 8 0 15 -4 15 -9 0 -5 15 -14 33 -20 17 -7 32 -11 32 -10 0 1 19
-8 42 -20 23 -11 49 -21 58 -21 9 0 14 -4 11 -9 -3 -5 5 -16 19 -25 19 -12 25
-13 26 -4 0 10 2 10 6 0 10 -26 -28 -52 -74 -52 -51 0 -93 33 -93 73 0 13 -9
32 -20 42 -19 17 -24 17 -88 2 -37 -9 -95 -19 -129 -23 l-63 -7 1 129 c1 80 4
120 9 104 5 -15 8 -18 9 -9z m1806 -340 c3 -5 2 -12 -3 -15 -5 -3 -9 1 -9 9 0
17 3 19 12 6z m-741 -224 c42 -70 76 -130 76 -132 0 -2 -36 -29 -80 -60 -299
-211 -672 -261 -1002 -134 -80 31 -186 87 -220 117 -18 15 -15 32 5 32 7 0 6
-4 -3 -10 -8 -5 -10 -10 -5 -10 6 0 21 12 34 26 13 14 37 32 53 40 16 8 28 23
28 34 0 11 6 20 14 20 8 0 18 9 21 20 6 20 35 29 35 11 0 -14 101 -122 125
-133 11 -5 36 -18 55 -28 38 -20 79 -29 50 -10 -8 5 -10 10 -5 10 6 0 21 -7
34 -16 16 -11 42 -16 82 -15 34 1 59 -3 59 -9 0 -12 77 -13 84 -1 3 5 23 12
43 15 47 8 83 21 149 53 54 26 124 87 124 107 0 7 11 23 25 36 14 13 25 31 25
39 0 9 8 21 18 28 10 6 31 36 47 67 23 45 31 54 40 44 7 -7 47 -71 89 -141z
m-324 -93 c0 -2 -9 0 -20 6 -11 6 -20 13 -20 16 0 2 9 0 20 -6 11 -6 20 -13
20 -16z m681 -121 c-183 -208 -460 -361 -757 -419 -129 -25 -347 -23 -484 6
-265 55 -487 174 -675 364 l-100 101 103 3 103 3 47 -42 c111 -97 288 -195
437 -242 123 -38 234 -51 391 -44 262 10 463 85 695 259 l84 63 100 5 c55 3
102 4 104 3 2 -1 -20 -28 -48 -60z m149 -3 c0 -5 -5 -10 -11 -10 -5 0 -7 5 -4
10 3 6 8 10 11 10 2 0 4 -4 4 -10z m-85 -118 c-3 -3 -11 0 -18 7 -9 10 -8 11
6 5 10 -3 15 -9 12 -12z m-1986 -66 c9 -11 9 -16 0 -22 -8 -4 -9 -3 -5 4 4 7
2 12 -3 12 -6 0 -11 5 -11 10 0 14 5 13 19 -4z m1526 -244 c-3 -3 -11 0 -18 7
-9 10 -8 11 6 5 10 -3 15 -9 12 -12z m-1188 2 c-3 -3 -12 -4 -19 -1 -8 3 -5 6
6 6 11 1 17 -2 13 -5z m233 -74 c8 -5 11 -10 5 -10 -5 0 -17 5 -25 10 -8 5
-10 10 -5 10 6 0 17 -5 25 -10z m467 -36 c-3 -3 -12 -4 -19 -1 -8 3 -5 6 6 6
11 1 17 -2 13 -5z m-120 -40 c-3 -3 -12 -4 -19 -1 -8 3 -5 6 6 6 11 1 17 -2
13 -5z m81 -11 c-10 -2 -26 -2 -35 0 -10 3 -2 5 17 5 19 0 27 -2 18 -5z"/>
<path d="M1574 1800 c0 -52 1 -74 3 -47 2 26 2 68 0 95 -2 26 -3 4 -3 -48z"/>
<path d="M825 1180 c-19 -8 -19 -9 3 -9 12 -1 22 4 22 9 0 6 -1 10 -2 9 -2 0
-12 -4 -23 -9z"/>
<path d="M900 1050 c0 -5 5 -10 11 -10 5 0 7 5 4 10 -3 6 -8 10 -11 10 -2 0
-4 -4 -4 -10z"/>
<path d="M2898 853 c7 -3 16 -2 19 1 4 3 -2 6 -13 5 -11 0 -14 -3 -6 -6z"/>
<path d="M1203 791 c0 -11 5 -17 9 -15 4 3 17 0 28 -6 32 -17 23 4 -9 23 -29
17 -30 17 -28 -2z"/>
<path d="M2825 780 c-3 -5 1 -10 10 -10 9 0 13 5 10 10 -3 6 -8 10 -10 10 -2
0 -7 -4 -10 -10z"/>
<path d="M0 40 c0 -29 4 -40 15 -40 16 0 19 20 9 58 -10 36 -24 25 -24 -18z"/>
</g>
</svg>
